<mxfile host="65bd71144e" modified="2021-01-30T21:13:05.420Z" agent="5.0 (Macintosh; Intel Mac OS X 10_15_7) AppleWebKit/537.36 (KHTML, like Gecko) Code/1.52.1 Chrome/83.0.4103.122 Electron/9.3.5 Safari/537.36" etag="VmZ1OGMxE1XGwI6S-RAZ" version="13.10.0" type="embed">
    <diagram name="Page-1" id="9f46799a-70d6-7492-0946-bef42562c5a5">
        <mxGraphModel dx="744" dy="485" grid="1" gridSize="10" guides="1" tooltips="1" connect="1" arrows="1" fold="1" page="1" pageScale="1" pageWidth="1100" pageHeight="850" background="#ffffff" math="0" shadow="0">
            <root>
                <mxCell id="0"/>
                <mxCell id="1" parent="0"/>
                <mxCell id="qFCYfPXuUuEXMMPbI42M-5" value="User" style="swimlane;childLayout=stackLayout;horizontal=1;startSize=30;horizontalStack=0;rounded=1;fontSize=14;fontStyle=0;strokeWidth=2;resizeParent=0;resizeLast=1;shadow=0;dashed=0;align=center;strokeColor=#000000;fontColor=#FFFFFF;" parent="1" vertex="1">
                    <mxGeometry x="70" y="60" width="160" height="120" as="geometry"/>
                </mxCell>
                <mxCell id="qFCYfPXuUuEXMMPbI42M-6" value="+Display Name&#10;+Email&#10;+Posts" style="align=left;strokeColor=#000000;fillColor=none;spacingLeft=4;fontSize=12;verticalAlign=top;resizable=0;rotatable=0;part=1;fontColor=#000000;" parent="qFCYfPXuUuEXMMPbI42M-5" vertex="1">
                    <mxGeometry y="30" width="160" height="90" as="geometry"/>
                </mxCell>
                <mxCell id="qFCYfPXuUuEXMMPbI42M-7" value="Post" style="swimlane;childLayout=stackLayout;horizontal=1;startSize=30;horizontalStack=0;rounded=1;fontSize=14;fontStyle=0;strokeWidth=2;resizeParent=0;resizeLast=1;shadow=0;dashed=0;align=center;fillColor=#000000;strokeColor=#000000;" parent="1" vertex="1">
                    <mxGeometry x="300" y="140" width="160" height="230" as="geometry"/>
                </mxCell>
                <mxCell id="qFCYfPXuUuEXMMPbI42M-8" value="+Character Name&#10;+User&#10;+Image&#10;+Created Date&#10;+System&#10;+Class&#10;+Intro&#10;+Height&#10;+Weight&#10;+Description&#10;+About&#10;+Comments&#10;+Edited Date&#10;" style="align=left;strokeColor=#000000;fillColor=none;spacingLeft=4;fontSize=12;verticalAlign=top;resizable=0;rotatable=0;part=1;fontColor=#000000;" parent="qFCYfPXuUuEXMMPbI42M-7" vertex="1">
                    <mxGeometry y="30" width="160" height="200" as="geometry"/>
                </mxCell>
                <mxCell id="qFCYfPXuUuEXMMPbI42M-13" value="Comments" style="swimlane;childLayout=stackLayout;horizontal=1;startSize=30;horizontalStack=0;rounded=1;fontSize=14;fontStyle=0;strokeWidth=2;resizeParent=0;resizeLast=1;shadow=0;dashed=0;align=center;strokeColor=#000000;" parent="1" vertex="1">
                    <mxGeometry x="510" y="30" width="160" height="120" as="geometry"/>
                </mxCell>
                <mxCell id="qFCYfPXuUuEXMMPbI42M-14" value="+User&#10;+Character&#10;+Body&#10;+Created Date&#10;+Edit Date" style="align=left;strokeColor=none;fillColor=none;spacingLeft=4;fontSize=12;verticalAlign=top;resizable=0;rotatable=0;part=1;fontColor=#000000;" parent="qFCYfPXuUuEXMMPbI42M-13" vertex="1">
                    <mxGeometry y="30" width="160" height="90" as="geometry"/>
                </mxCell>
                <mxCell id="qFCYfPXuUuEXMMPbI42M-16" value="" style="edgeStyle=entityRelationEdgeStyle;fontSize=12;html=1;endArrow=ERoneToMany;entryX=0;entryY=0.25;entryDx=0;entryDy=0;exitX=0.994;exitY=0.589;exitDx=0;exitDy=0;exitPerimeter=0;strokeColor=#000000;" parent="1" source="qFCYfPXuUuEXMMPbI42M-6" target="qFCYfPXuUuEXMMPbI42M-8" edge="1">
                    <mxGeometry width="100" height="100" relative="1" as="geometry">
                        <mxPoint x="360" y="160" as="sourcePoint"/>
                        <mxPoint x="460" y="60" as="targetPoint"/>
                    </mxGeometry>
                </mxCell>
                <mxCell id="qFCYfPXuUuEXMMPbI42M-17" value="" style="edgeStyle=entityRelationEdgeStyle;fontSize=12;html=1;endArrow=ERoneToMany;entryX=0;entryY=0.5;entryDx=0;entryDy=0;exitX=1;exitY=0.367;exitDx=0;exitDy=0;exitPerimeter=0;strokeColor=#000000;" parent="1" source="qFCYfPXuUuEXMMPbI42M-8" target="qFCYfPXuUuEXMMPbI42M-14" edge="1">
                    <mxGeometry width="100" height="100" relative="1" as="geometry">
                        <mxPoint x="650" y="170" as="sourcePoint"/>
                        <mxPoint x="780" y="172.5" as="targetPoint"/>
                    </mxGeometry>
                </mxCell>
                <mxCell id="2" value="" style="edgeStyle=entityRelationEdgeStyle;fontSize=12;html=1;endArrow=ERmany;strokeColor=#000000;exitX=1.006;exitY=0.189;exitDx=0;exitDy=0;exitPerimeter=0;entryX=0.006;entryY=0.144;entryDx=0;entryDy=0;entryPerimeter=0;" edge="1" parent="1" source="qFCYfPXuUuEXMMPbI42M-6" target="qFCYfPXuUuEXMMPbI42M-14">
                    <mxGeometry width="100" height="100" relative="1" as="geometry">
                        <mxPoint x="310" y="180" as="sourcePoint"/>
                        <mxPoint x="410" y="80" as="targetPoint"/>
                    </mxGeometry>
                </mxCell>
            </root>
        </mxGraphModel>
    </diagram>
</mxfile>